<?xml version="1.0" encoding="UTF-8"?>
<svg xmlns="http://www.w3.org/2000/svg" xmlns:xlink="http://www.w3.org/1999/xlink" width="32pt" height="32pt" viewBox="0 0 32 32" version="1.1">
<g id="surface1">
<path style=" stroke:none;fill-rule:nonzero;fill:rgb(100%,0%,0%);fill-opacity:1;" d="M 9.851562 5.238281 C 9.546875 5.351562 9.113281 5.636719 8.898438 5.886719 C 8.523438 6.289062 8.523438 6.328125 8.738281 6.585938 C 8.914062 6.761719 8.960938 6.976562 8.886719 7.300781 C 8.726562 8.199219 6.988281 10.886719 5.539062 12.511719 C 5.074219 13.011719 5.027344 13.039062 5.085938 12.710938 C 5.128906 12.523438 5.300781 11.226562 5.460938 9.824219 C 5.746094 7.4375 5.753906 7.25 5.539062 6.921875 C 5.414062 6.726562 5.175781 6.574219 4.988281 6.574219 C 4.613281 6.574219 3.699219 7.171875 3.496094 7.5625 C 3.351562 7.8125 3.238281 10.246094 3.101562 16.628906 C 3.0625 18.925781 3.1875 19.75 3.675781 20.046875 C 3.855469 20.148438 4.011719 20.136719 4.300781 19.988281 L 4.679688 19.761719 L 4.699219 17.824219 C 4.699219 16.746094 4.75 15.679688 4.804688 15.476562 C 4.898438 15.074219 4.9375 15.113281 5.960938 16.503906 C 7.925781 19.175781 8.875 19.863281 9.9375 19.425781 C 10.472656 19.199219 12.164062 17.125 12.164062 16.6875 C 12.164062 16.046875 11.625 16.1875 10.664062 17.0625 C 10.324219 17.375 9.988281 17.613281 9.878906 17.613281 C 9.476562 17.613281 7.300781 14.914062 6.863281 13.863281 C 6.675781 13.429688 6.695312 13.386719 7.351562 12.621094 C 8.960938 10.75 10.648438 8.550781 10.925781 7.960938 C 11.363281 7.101562 11.460938 5.476562 11.101562 5.210938 C 10.789062 4.988281 10.5625 4.988281 9.851562 5.238281 Z M 13.375 7.574219 C 12.730469 8.1875 12.523438 8.648438 12.605469 9.238281 C 12.628906 9.519531 12.75 9.585938 13.148438 9.613281 C 13.796875 9.675781 14.460938 9.136719 14.6875 8.414062 C 15.113281 6.976562 14.460938 6.550781 13.375 7.574219 Z M 13.375 7.574219 "/>
<path style=" stroke:none;fill-rule:nonzero;fill:rgb(100%,0%,0%);fill-opacity:1;" d="M 27.449219 9.625 C 27.199219 9.789062 26.597656 10.511719 26.105469 11.273438 C 25.113281 12.773438 24.539062 13.414062 24.195312 13.414062 C 24.050781 13.414062 23.789062 13.050781 23.496094 12.511719 C 23 11.546875 22.699219 11.351562 22 11.519531 C 21.5625 11.625 20.511719 12.574219 20.113281 13.238281 C 19.9375 13.5 19.789062 13.699219 19.761719 13.671875 C 19.75 13.636719 19.863281 13.125 20.011719 12.511719 C 20.226562 11.699219 20.261719 11.273438 20.179688 10.914062 C 19.863281 9.699219 18.976562 10.074219 17.5 12.050781 C 15.238281 15.074219 14.664062 15.25 14.335938 12.972656 C 14.226562 12.210938 14.175781 12.164062 13.488281 12.128906 C 12.847656 12.101562 12.335938 12.574219 11.023438 14.425781 C 10.0625 15.773438 9.902344 16.125 10.246094 16.253906 C 10.5625 16.378906 11.011719 16.085938 11.6875 15.320312 C 12.050781 14.886719 12.449219 14.539062 12.597656 14.539062 C 12.710938 14.539062 13.023438 14.855469 13.289062 15.300781 C 13.851562 16.238281 14.300781 16.460938 14.996094 16.152344 C 15.613281 15.902344 16.746094 14.871094 17.414062 13.949219 C 17.695312 13.585938 17.976562 13.273438 18.046875 13.273438 C 18.171875 13.273438 18.136719 13.476562 17.800781 15.261719 C 17.5625 16.503906 17.675781 16.914062 18.25 16.914062 C 18.675781 16.914062 19.085938 16.488281 20.238281 14.980469 C 20.648438 14.425781 21.152344 13.863281 21.335938 13.738281 C 21.648438 13.546875 21.6875 13.546875 21.949219 13.773438 C 22.125 13.921875 22.335938 14.210938 22.445312 14.425781 C 22.699219 14.914062 23.394531 15.289062 23.855469 15.164062 C 24.039062 15.125 24.476562 14.800781 24.820312 14.449219 C 25.335938 13.921875 25.4375 13.863281 25.4375 14.101562 C 25.4375 14.6875 25.871094 15.488281 26.289062 15.648438 C 27.574219 16.199219 29.824219 14.523438 30.621094 12.449219 C 31 11.421875 30.972656 10.863281 30.476562 10.3125 C 30.113281 9.914062 30.003906 9.871094 29.304688 9.871094 C 28.6875 9.878906 28.550781 9.835938 28.5625 9.664062 C 28.597656 9.324219 27.960938 9.3125 27.449219 9.625 Z M 29.386719 11.625 C 29.652344 12.414062 27.949219 14.675781 27.363281 14.3125 C 27.101562 14.144531 27.351562 12.847656 27.710938 12.523438 C 27.894531 12.351562 28.148438 12.0625 28.289062 11.835938 C 28.449219 11.574219 28.636719 11.460938 28.914062 11.460938 C 29.136719 11.460938 29.351562 11.546875 29.386719 11.625 Z M 29.386719 11.625 "/>
<path style=" stroke:none;fill-rule:nonzero;fill:rgb(100%,0%,0%);fill-opacity:1;" d="M 23.773438 16.085938 C 18.171875 16.789062 8.363281 20.324219 2.851562 23.636719 C 1.539062 24.429688 0.304688 25.460938 0.125 25.960938 C -0.0585938 26.453125 0.113281 26.550781 0.4375 26.148438 C 1.875 24.386719 8.121094 21.789062 15.648438 19.828125 C 19.3125 18.878906 21.699219 18.449219 23.710938 18.351562 L 25.574219 18.261719 L 26.039062 18.789062 C 26.664062 19.449219 26.976562 19.386719 28.113281 18.296875 L 29 17.488281 L 28.703125 17.085938 C 28.039062 16.175781 26.164062 15.773438 23.773438 16.085938 Z M 23.773438 16.085938 "/>
</g>
</svg>
