<?xml version="1.0" encoding="UTF-8"?>
<svg xmlns="http://www.w3.org/2000/svg" xmlns:xlink="http://www.w3.org/1999/xlink" width="30pt" height="30pt" viewBox="0 0 30 30" version="1.1">
<g id="surface1">
<path style=" stroke:none;fill-rule:nonzero;fill:rgb(0%,0%,0%);fill-opacity:1;" d="M 9.234375 4.910156 C 8.949219 5.015625 8.542969 5.285156 8.34375 5.519531 C 7.992188 5.894531 7.992188 5.933594 8.191406 6.175781 C 8.355469 6.339844 8.402344 6.539062 8.332031 6.84375 C 8.179688 7.6875 6.550781 10.207031 5.191406 11.730469 C 4.757812 12.199219 4.714844 12.222656 4.769531 11.917969 C 4.808594 11.742188 4.96875 10.523438 5.121094 9.210938 C 5.386719 6.972656 5.394531 6.796875 5.191406 6.488281 C 5.074219 6.304688 4.851562 6.164062 4.675781 6.164062 C 4.324219 6.164062 3.46875 6.722656 3.277344 7.089844 C 3.140625 7.324219 3.035156 9.605469 2.90625 15.589844 C 2.871094 17.742188 2.988281 18.515625 3.445312 18.792969 C 3.613281 18.890625 3.761719 18.878906 4.03125 18.738281 L 4.386719 18.527344 L 4.40625 16.710938 C 4.40625 15.699219 4.453125 14.699219 4.503906 14.507812 C 4.59375 14.132812 4.628906 14.167969 5.589844 15.472656 C 7.429688 17.976562 8.320312 18.621094 9.316406 18.210938 C 9.816406 18 11.402344 16.054688 11.402344 15.644531 C 11.402344 15.042969 10.898438 15.175781 9.996094 15.996094 C 9.679688 16.289062 9.363281 16.511719 9.261719 16.511719 C 8.882812 16.511719 6.84375 13.980469 6.433594 12.996094 C 6.257812 12.589844 6.277344 12.550781 6.890625 11.832031 C 8.402344 10.078125 9.984375 8.015625 10.242188 7.464844 C 10.652344 6.65625 10.746094 5.132812 10.40625 4.886719 C 10.113281 4.675781 9.902344 4.675781 9.234375 4.910156 Z M 9.234375 4.910156 "/>
<path style=" stroke:none;fill-rule:nonzero;fill:rgb(0%,0%,0%);fill-opacity:1;" d="M 12.539062 7.101562 C 11.933594 7.675781 11.742188 8.109375 11.816406 8.660156 C 11.839844 8.925781 11.953125 8.988281 12.328125 9.011719 C 12.933594 9.070312 13.558594 8.566406 13.769531 7.886719 C 14.167969 6.539062 13.558594 6.140625 12.539062 7.101562 Z M 12.539062 7.101562 "/>
<path style=" stroke:none;fill-rule:nonzero;fill:rgb(0%,0%,0%);fill-opacity:1;" d="M 25.734375 9.023438 C 25.5 9.175781 24.933594 9.855469 24.472656 10.570312 C 23.542969 11.976562 23.003906 12.574219 22.683594 12.574219 C 22.546875 12.574219 22.300781 12.234375 22.027344 11.730469 C 21.5625 10.824219 21.28125 10.640625 20.625 10.800781 C 20.214844 10.898438 19.230469 11.789062 18.855469 12.410156 C 18.691406 12.65625 18.550781 12.84375 18.527344 12.816406 C 18.515625 12.785156 18.621094 12.304688 18.761719 11.730469 C 18.960938 10.96875 18.996094 10.570312 18.917969 10.230469 C 18.621094 9.09375 17.789062 9.445312 16.40625 11.296875 C 14.285156 14.132812 13.746094 14.296875 13.441406 12.160156 C 13.335938 11.449219 13.289062 11.402344 12.644531 11.371094 C 12.042969 11.34375 11.566406 11.789062 10.335938 13.523438 C 9.433594 14.789062 9.285156 15.117188 9.605469 15.238281 C 9.902344 15.355469 10.324219 15.082031 10.957031 14.363281 C 11.296875 13.957031 11.671875 13.628906 11.808594 13.628906 C 11.917969 13.628906 12.210938 13.925781 12.457031 14.34375 C 12.984375 15.222656 13.40625 15.433594 14.058594 15.144531 C 14.636719 14.910156 15.699219 13.941406 16.324219 13.078125 C 16.589844 12.738281 16.851562 12.445312 16.917969 12.445312 C 17.035156 12.445312 17.003906 12.632812 16.6875 14.308594 C 16.464844 15.472656 16.570312 15.855469 17.109375 15.855469 C 17.507812 15.855469 17.894531 15.457031 18.972656 14.042969 C 19.359375 13.523438 19.832031 12.996094 20.003906 12.878906 C 20.296875 12.699219 20.332031 12.699219 20.578125 12.914062 C 20.742188 13.050781 20.941406 13.324219 21.042969 13.523438 C 21.28125 13.980469 21.933594 14.332031 22.363281 14.214844 C 22.535156 14.179688 22.945312 13.875 23.269531 13.546875 C 23.753906 13.050781 23.847656 12.996094 23.847656 13.21875 C 23.847656 13.769531 24.253906 14.519531 24.644531 14.671875 C 25.851562 15.1875 27.960938 13.617188 28.707031 11.671875 C 29.0625 10.707031 29.035156 10.183594 28.570312 9.667969 C 28.230469 9.292969 28.128906 9.253906 27.472656 9.253906 C 26.894531 9.261719 26.765625 9.222656 26.777344 9.058594 C 26.808594 8.742188 26.214844 8.730469 25.734375 9.023438 Z M 27.550781 10.898438 C 27.800781 11.636719 26.203125 13.757812 25.652344 13.417969 C 25.40625 13.261719 25.640625 12.042969 25.980469 11.742188 C 26.152344 11.578125 26.390625 11.308594 26.519531 11.097656 C 26.671875 10.851562 26.847656 10.746094 27.105469 10.746094 C 27.316406 10.746094 27.515625 10.824219 27.550781 10.898438 Z M 27.550781 10.898438 "/>
<path style=" stroke:none;fill-rule:nonzero;fill:rgb(0%,0%,0%);fill-opacity:1;" d="M 22.289062 15.082031 C 17.035156 15.738281 7.839844 19.054688 2.671875 22.160156 C 1.441406 22.902344 0.285156 23.871094 0.117188 24.339844 C -0.0546875 24.800781 0.105469 24.890625 0.410156 24.515625 C 1.757812 22.863281 7.613281 20.425781 14.671875 18.589844 C 18.105469 17.699219 20.34375 17.296875 22.230469 17.203125 L 23.976562 17.121094 L 24.410156 17.613281 C 24.996094 18.234375 25.289062 18.175781 26.355469 17.152344 L 27.1875 16.394531 L 26.910156 16.019531 C 26.285156 15.164062 24.527344 14.789062 22.289062 15.082031 Z M 22.289062 15.082031 "/>
</g>
</svg>
